<?xml version="1.0" encoding="utf-8"?>
<!-- Generator: Adobe Illustrator 27.7.0, SVG Export Plug-In . SVG Version: 6.00 Build 0)  -->
<svg version="1.1" id="レイヤー_1" xmlns="http://www.w3.org/2000/svg" xmlns:xlink="http://www.w3.org/1999/xlink" x="0px"
	 y="0px" viewBox="0 0 200.5 105.4" style="enable-background:new 0 0 200.5 105.4;" xml:space="preserve">
<style type="text/css">
	.st0{fill:#015E3C;}
</style>
<path id="パス_27375" class="st0" d="M9.4,87.7H7.1v8h-7.1V69.9h11.5c1.3,0,2.6,0.2,3.9,0.6c1.1,0.4,2.2,1,3,1.8
	c0.9,0.8,1.5,1.7,2,2.8c0.5,1.1,0.7,2.4,0.7,3.6c0,0.9-0.1,1.7-0.3,2.5c-0.2,0.8-0.5,1.5-0.9,2.2c-0.4,0.7-0.9,1.2-1.4,1.8
	c-0.6,0.5-1.2,1-1.9,1.3l5.2,9.1h-8.2L9.4,87.7z M11.1,81.7c0.4,0,0.7-0.1,1.1-0.2c0.3-0.1,0.6-0.3,0.9-0.6c0.3-0.3,0.5-0.6,0.6-0.9
	c0.3-0.8,0.3-1.6,0-2.4c-0.1-0.4-0.3-0.7-0.6-0.9c-0.3-0.3-0.5-0.5-0.9-0.6c-0.3-0.2-0.7-0.2-1.1-0.2h-4v5.9L11.1,81.7z"/>
<path id="パス_27376" class="st0" d="M24.5,70.7c0-0.9,0.4-1.8,1.1-2.4c0.4-0.3,0.8-0.6,1.3-0.7c0.5-0.2,1.1-0.3,1.7-0.3
	c0.6,0,1.1,0.1,1.7,0.3c0.5,0.2,0.9,0.4,1.3,0.7c1.4,1.2,1.5,3.3,0.3,4.6c-0.1,0.1-0.2,0.2-0.3,0.3c-0.4,0.3-0.8,0.6-1.3,0.7
	c-0.5,0.2-1.1,0.3-1.7,0.3c-0.6,0-1.1-0.1-1.6-0.3c-0.5-0.2-0.9-0.4-1.3-0.7c-0.3-0.3-0.6-0.7-0.8-1.1
	C24.6,71.7,24.5,71.2,24.5,70.7 M25,75.9h7v19.8h-7L25,75.9z"/>
<path id="パス_27377" class="st0" d="M58.3,95.7h-7V85.2c0-0.7-0.1-1.4-0.2-2c-0.1-0.5-0.3-0.9-0.6-1.3c-0.3-0.3-0.6-0.5-1-0.7
	c-0.4-0.1-0.8-0.2-1.2-0.2c-0.6,0-1.2,0.1-1.7,0.4c-0.5,0.2-0.9,0.6-1.2,1c-0.3,0.5-0.6,1-0.8,1.5c-0.2,0.6-0.3,1.3-0.3,1.9v9.7
	h-6.9V75.9h5.6l0.4,1.2c0.4-0.2,0.8-0.5,1.3-0.7c0.5-0.2,1-0.4,1.5-0.6c0.5-0.2,1.1-0.3,1.6-0.4c0.5-0.1,1.1-0.2,1.6-0.2
	c1.4,0,2.8,0.2,4.1,0.7c1.1,0.4,2,1.1,2.8,2c0.7,0.9,1.3,2,1.6,3.1c0.3,1.3,0.5,2.7,0.5,4.1L58.3,95.7z"/>
<path id="パス_27378" class="st0" d="M62,85.8c0-1.4,0.2-2.8,0.7-4.1c0.9-2.6,2.9-4.6,5.4-5.6c1.4-0.6,2.9-0.9,4.5-0.8
	c1.1,0,2.2,0.2,3.3,0.5c0.9,0.3,1.7,0.8,2.5,1.3l0.3-1.2h5.6v18.5c0,1.4-0.2,2.9-0.8,4.2c-0.5,1.2-1.2,2.3-2.2,3.1
	c-1,0.9-2.1,1.6-3.4,2c-3,0.9-6.1,0.9-9.1,0c-1.1-0.4-2.2-1-3.1-1.8c-0.8-0.7-1.4-1.6-1.7-2.5c-0.4-0.9-0.5-1.8-0.6-2.8l6.6,0
	c0.1,0.3,0.3,0.6,0.4,0.9c0.2,0.3,0.4,0.5,0.7,0.7c0.3,0.2,0.6,0.4,1,0.5c0.4,0.1,0.9,0.2,1.3,0.2c0.7,0,1.3-0.1,1.9-0.4
	c0.9-0.5,1.6-1.3,1.8-2.3c0.1-0.4,0.2-0.8,0.2-1.3v-0.5c-0.8,0.5-1.6,0.9-2.4,1.1c-1,0.3-2,0.5-3.1,0.5c-1.4,0-2.8-0.2-4.1-0.8
	c-1.2-0.5-2.2-1.2-3.1-2.1c-0.9-0.9-1.6-2-2-3.2C62.2,88.5,62,87.1,62,85.8 M68.9,85.8c0,0.7,0.1,1.3,0.3,2c0.2,0.6,0.5,1.1,0.9,1.5
	c0.4,0.4,0.9,0.7,1.4,1c1.1,0.4,2.3,0.4,3.4,0c0.5-0.2,1-0.5,1.4-0.9c0.4-0.4,0.7-0.9,0.9-1.5c0.2-0.6,0.4-1.3,0.3-2
	c0-0.7-0.1-1.3-0.3-2c-0.2-0.6-0.5-1.1-0.9-1.5c-0.4-0.4-0.9-0.7-1.4-0.9c-0.5-0.2-1.1-0.3-1.7-0.3c-0.6,0-1.2,0.1-1.7,0.3
	c-0.5,0.2-1,0.5-1.4,0.9c-0.4,0.4-0.7,0.9-0.9,1.5C69,84.4,68.9,85.1,68.9,85.8"/>
<path id="パス_27379" class="st0" d="M88.4,85.8c0-1.4,0.3-2.8,0.8-4.1c0.5-1.3,1.3-2.4,2.3-3.4c1-1,2.2-1.8,3.5-2.3
	c1.4-0.6,3-0.9,4.5-0.8c1.6,0,3.1,0.3,4.6,0.8c1.3,0.5,2.5,1.3,3.5,2.3c1,1,1.7,2.1,2.3,3.4c1.1,2.6,1.1,5.6,0,8.2
	c-0.5,1.3-1.3,2.4-2.3,3.4c-1,1-2.2,1.7-3.5,2.3c-1.5,0.6-3,0.8-4.6,0.8c-1.5,0-3.1-0.3-4.5-0.8c-1.3-0.5-2.5-1.3-3.5-2.3
	c-1-1-1.7-2.1-2.3-3.4C88.6,88.6,88.4,87.2,88.4,85.8 M95.3,85.8c0,0.7,0.1,1.3,0.3,2c0.2,0.6,0.5,1.1,0.9,1.5
	c0.4,0.4,0.8,0.7,1.3,0.9c0.5,0.2,1.1,0.3,1.6,0.3c0.6,0,1.1-0.1,1.6-0.3c0.5-0.2,1-0.5,1.3-0.9c0.4-0.4,0.7-0.9,0.9-1.5
	c0.2-0.6,0.3-1.3,0.3-2c0-0.7-0.1-1.3-0.3-2c-0.2-0.6-0.5-1.1-0.9-1.5c-0.4-0.4-0.8-0.7-1.3-0.9c-0.5-0.2-1.1-0.3-1.6-0.3
	c-0.6,0-1.1,0.1-1.6,0.3c-0.5,0.2-0.9,0.5-1.3,0.9c-0.4,0.4-0.7,0.9-0.9,1.5C95.4,84.4,95.3,85.1,95.3,85.8"/>
<path id="パス_27380" class="st0" d="M122.5,89.7h3.6c0.7,0,1.4-0.2,2-0.7c0.5-0.6,0.8-1.3,0.7-2.1l0-17h7.1v17
	c0,1.3-0.2,2.6-0.7,3.8c-0.5,1.1-1.2,2-2.1,2.7c-0.9,0.8-2,1.3-3.1,1.7c-1.3,0.4-2.6,0.6-3.9,0.6h-3.6L122.5,89.7z"/>
<path id="パス_27381" class="st0" d="M139.8,85.8c0-1.4,0.2-2.8,0.7-4.1c0.5-1.2,1.2-2.4,2.1-3.4c0.9-1,2.1-1.8,3.3-2.3
	c1.4-0.6,2.9-0.9,4.5-0.8c1.1,0,2.1,0.2,3.1,0.5c0.8,0.3,1.7,0.7,2.4,1.2l0.2-1h5.9v19.8h-5.9l-0.2-1.1c-0.7,0.5-1.6,0.9-2.4,1.2
	c-1,0.3-2.1,0.5-3.1,0.5c-1.5,0-3-0.3-4.4-0.8c-2.5-1-4.5-3.1-5.4-5.6C140,88.6,139.8,87.2,139.8,85.8 M146.7,85.8
	c0,0.7,0.1,1.3,0.3,2c0.2,0.6,0.5,1.1,0.9,1.5c0.4,0.4,0.9,0.7,1.4,1c0.5,0.2,1.1,0.3,1.7,0.3c0.6,0,1.2-0.1,1.7-0.3
	c0.5-0.2,1-0.5,1.4-0.9c0.4-0.4,0.7-0.9,0.9-1.5c0.2-0.6,0.3-1.3,0.3-2c0-0.7-0.1-1.3-0.3-2c-0.2-0.6-0.5-1.1-0.9-1.5
	c-0.4-0.4-0.9-0.7-1.4-0.9c-0.5-0.2-1.1-0.3-1.7-0.3c-0.6,0-1.2,0.1-1.7,0.3c-0.5,0.2-1,0.5-1.4,0.9c-0.4,0.4-0.7,0.9-0.9,1.5
	C146.8,84.4,146.7,85.1,146.7,85.8"/>
<path id="パス_27382" class="st0" d="M200.5,95.7h-7V85.2c0.1-1.1-0.1-2.2-0.6-3.1c-0.4-0.7-1.2-1.1-2-1c-1-0.1-1.9,0.4-2.6,1.1
	c-0.7,0.9-1,2-1,3.1v10.4h-7V85.2c0.1-1.1-0.1-2.2-0.6-3.1c-0.4-0.7-1.2-1.1-2-1c-1-0.1-2,0.4-2.6,1.2c-0.7,1-1,2.1-0.9,3.3v10.2
	h-6.9V75.9h5.6l0.3,1.1c0.8-0.5,1.7-0.9,2.5-1.2c1-0.4,2.1-0.5,3.1-0.5c1.2,0,2.3,0.2,3.4,0.6c1,0.4,1.8,1,2.6,1.7
	c0.4-0.3,0.9-0.6,1.3-0.9c0.5-0.3,1-0.5,1.6-0.7c0.6-0.2,1.2-0.4,1.8-0.5c0.7-0.1,1.4-0.2,2.1-0.2c1.3,0,2.6,0.2,3.8,0.7
	c1,0.4,2,1.1,2.7,2c0.8,0.9,1.3,2,1.6,3.1c0.4,1.3,0.6,2.7,0.5,4.1L200.5,95.7z"/>
<path id="パス_27383" class="st0" d="M82,63.6c-0.2,0.7-0.9,1-1.5,0.9s-1-0.9-0.9-1.5c0.2-0.7,0.9-1,1.5-0.9
	C81.8,62.3,82.2,63,82,63.6C82,63.6,82,63.6,82,63.6"/>
<path id="パス_27384" class="st0" d="M78,59.6c-0.3,0.9-1.2,1.5-2.2,1.3c-0.9-0.3-1.5-1.2-1.3-2.2c0.3-0.9,1.2-1.5,2.2-1.3
	C77.7,57.7,78.2,58.7,78,59.6C78,59.6,78,59.6,78,59.6"/>
<path id="パス_27385" class="st0" d="M73.6,57.9c0.8,0.4,0.8,1,0.9,1.5c0.1,0.5,0.4-1.3,0.4-1.3L73.6,57.9z"/>
<path id="パス_27386" class="st0" d="M75.1,56.7c0.5,0.8,0.8,0.7,1.3,0.7s-1.1,0.4-1.1,0.4L75.1,56.7z"/>
<path id="パス_27387" class="st0" d="M74,58.1c-0.5-0.4-1.6-0.3-2.3-1.1c-0.7-0.9-0.9-2.8-1.6-4.2c-0.8-1.5,2.5,0.7,2.5,0.7
	L74,58.1z"/>
<path id="パス_27388" class="st0" d="M75.4,58.9c-1.3,0.3-10.2-9.8-9.9-25.8c0.4-17.8,15-25.4,26.7-22.1
	c15.5,4.4,19.3,18.6,14.3,31.6c-2.1,5.6-6.4,7.1-9.7,6.6c-1.7-0.3-3.3-1.2-4.3-2.7c-0.5-0.8-0.9-1.2-1.4-1.2c-0.6,0-0.8,1.1,0.3,2.8
	c2.2,3.4,6.1,3.8,8.2,3.8c4.4-0.2,8.5-2.3,11.4-5.7c3.8-4.8,4.9-9.1,5.3-15c0.5-7.1,1.6-12.1,7.4-10.9c6.6,1.4,14.1,11.4,9.7,25.9
	c-4.6,15.2-19.8,24.1-33.4,21.4c-12.1-2.4-20-11.3-20.5-21.7S87,27.8,94.3,31c2.2,0.9,3.8,2.8,4.3,5.1c0.3,1.3,0.2,2.7-0.3,3.9
	c-0.4,1-0.2,1.5,0.3,1.5c0.6,0,1.3-0.8,1.8-2.2c0.5-1.4,0.6-2.9,0.3-4.4c-0.5-3-2.7-6.4-7.3-8c-8.2-2.8-14.7,1.3-18.2,7.8
	c-3.8,7.1-2.7,15-1.5,18.8C74.9,57.2,76.8,58.5,75.4,58.9"/>
<path id="パス_27389" class="st0" d="M106.5,15.7c-1.2-0.1-0.9-2.2,0.7-7.5c1.5-4.9,3.2-8,4.5-7.1c1,0.7-0.4,2.5-2.2,8
	C107.8,14.3,107.8,15.8,106.5,15.7"/>
<path id="パス_27390" class="st0" d="M110.9,10.8c-0.3-0.9,2.8-5.7,7.7-7.2s10.9,0.9,11.3,1.8c0.3,0.8-3.4,6-8.8,7.2
	S111.2,11.6,110.9,10.8"/>
</svg>
